<svg width="177" height="52" viewBox="0 0 177 52" fill="none" xmlns="http://www.w3.org/2000/svg">
<path d="M4.11 49.2601C1.37 47.8901 0 45.6301 0 42.4801C0 39.1501 1.61 36.1901 4.82 33.6001C8.03 31.0101 11.35 29.0201 14.77 27.6201C18.19 26.2201 21.89 24.8701 25.88 23.5601C25.82 21.3601 25.73 19.7401 25.61 18.7001C25.49 17.6601 25.19 16.8101 24.72 16.1601C24.24 15.5101 23.44 15.1801 22.31 15.1801C20.64 15.1801 18.73 15.8001 16.55 17.0501C14.38 18.3001 12.34 19.7601 10.44 21.4201C8.54 23.0901 7.11 24.4801 6.16 25.6101L4.06 20.9801C3.31 19.3201 4.14 17.3501 5.87 16.7701C11.76 14.8101 17.77 13.8301 23.92 13.8301C27.55 13.8301 30.48 14.5101 32.71 15.8801C33.99 16.6601 34.96 17.6201 35.62 18.7601C36.42 20.1301 35.72 21.9101 34.23 22.4801C28.96 24.5001 24.69 26.4801 21.42 28.4301C17.67 30.6601 14.95 33.0401 13.25 35.5701C11.55 38.1001 10.71 40.9401 10.71 44.0901C10.71 45.9301 11.19 47.3801 12.14 48.4201C13.09 49.4601 14.34 49.9801 15.89 49.9801C18.21 49.9801 20.23 48.6701 21.96 46.0501C24.99 41.4501 24.89 35.5901 28.96 31.5301C29.98 30.5101 31.44 29.9701 32.85 30.2501C38.84 31.4301 36.6 41.6401 36.6 45.6001C36.6 46.7301 36.63 47.7601 36.69 48.6801C36.75 49.6001 36.87 50.4801 37.05 51.3101H31.61C29.53 51.3101 28.05 50.9401 27.19 50.1901C26.33 49.4501 25.9 48.3601 25.9 46.9301V46.7501C24.35 48.0601 22.48 49.1501 20.28 50.0101C18.08 50.8701 15.88 51.3001 13.68 51.3001C10.05 51.3001 6.87 50.6201 4.13 49.2501L4.11 49.2601Z" fill="#F3F2EE"/>
<path d="M84.9694 49.2601C82.2294 47.8901 80.8594 45.6301 80.8594 42.4801C80.8594 39.1501 82.4694 36.1901 85.6794 33.6001C88.8894 31.0101 92.2094 29.0201 95.6294 27.6201C99.0494 26.2201 102.749 24.8701 106.739 23.5601C106.679 21.3601 106.589 19.7401 106.469 18.7001C106.349 17.6601 106.049 16.8101 105.579 16.1601C105.099 15.5101 104.299 15.1801 103.169 15.1801C101.499 15.1801 99.5894 15.8001 97.4094 17.0501C95.2394 18.3001 93.1994 19.7601 91.2994 21.4201C89.3994 23.0901 87.9694 24.4801 87.0194 25.6101L84.9194 20.9801C84.1694 19.3201 84.9994 17.3501 86.7294 16.7701C92.6194 14.8101 98.6294 13.8301 104.779 13.8301C108.409 13.8301 111.339 14.5101 113.569 15.8801C114.849 16.6601 115.819 17.6201 116.479 18.7601C117.279 20.1301 116.579 21.9101 115.089 22.4801C109.819 24.5001 105.549 26.4801 102.279 28.4301C98.5294 30.6601 95.8094 33.0401 94.1094 35.5701C92.4094 38.1001 91.5694 40.9401 91.5694 44.0901C91.5694 45.9301 92.0494 47.3801 92.9994 48.4201C93.9494 49.4601 95.1994 49.9801 96.7494 49.9801C99.0694 49.9801 101.089 48.6701 102.819 46.0501C105.849 41.4501 105.749 35.5901 109.819 31.5301C110.839 30.5101 112.299 29.9701 113.709 30.2501C119.699 31.4301 117.459 41.6401 117.459 45.6001C117.459 46.7301 117.489 47.7601 117.549 48.6801C117.609 49.6001 117.729 50.4801 117.909 51.3101H112.469C110.389 51.3101 108.909 50.9401 108.049 50.1901C107.189 49.4501 106.759 48.3601 106.759 46.9301V46.7501C105.209 48.0601 103.339 49.1501 101.139 50.0101C98.9394 50.8701 96.7394 51.3001 94.5394 51.3001C90.9094 51.3001 87.7294 50.6201 84.9894 49.2501L84.9694 49.2601Z" fill="#F3F2EE"/>
<path d="M41.2194 48.4601C41.2794 47.5401 41.3094 46.5101 41.3094 45.3801V27.2601C41.3094 24.5201 41.1594 22.6601 40.8594 21.6801C40.8594 21.6801 40.8594 21.6601 40.8594 21.6501C40.4894 20.4901 40.9694 19.2401 42.0894 18.7801L52.4694 14.5001C52.2894 15.3301 52.1694 16.3401 52.1094 17.5301C52.0494 18.7201 52.0194 20.2101 52.0194 21.9901V45.3701C52.0194 46.5001 52.0494 47.5301 52.1094 48.4501C52.1694 49.3701 52.2894 50.2501 52.4694 51.0801H40.8694C41.0494 50.2501 41.1694 49.3701 41.2294 48.4501L41.2194 48.4601ZM67.9994 48.4601C68.0594 47.5401 68.0894 46.5101 68.0894 45.3801V28.8701C68.0894 25.4201 67.6694 22.5801 66.8394 20.3501C66.0094 18.1201 64.1594 17.0001 61.3094 17.0001C57.9194 17.0001 54.8194 18.8501 52.0294 22.5301C53.0994 20.1501 54.7094 18.1401 56.8494 16.5101C58.9894 14.8701 61.7294 14.0601 65.0594 14.0601C69.6394 14.0601 73.0794 15.3101 75.3694 17.8101C77.6594 20.3101 78.8094 24.0001 78.8094 28.8801V45.3901C78.8094 46.5201 78.8394 47.5501 78.8994 48.4701C78.9594 49.3901 79.0794 50.2701 79.2594 51.1001H67.6594C67.8394 50.2701 67.9594 49.3901 68.0194 48.4701L67.9994 48.4601Z" fill="#F3F2EE"/>
<path d="M129.799 48.2402C129.859 47.3202 129.889 46.2902 129.889 45.1602V12.7602C129.889 10.0202 129.739 8.16023 129.439 7.18023C129.439 7.18023 129.439 7.16023 129.439 7.15023C129.069 5.99023 129.549 4.74023 130.669 4.28023L141.049 -0.00976562C140.809 0.820234 140.679 1.89023 140.649 3.20023C140.619 4.51023 140.609 6.23023 140.609 8.38023V30.4202L146.949 23.9902C150.819 20.1202 153.819 17.5302 155.959 16.2302C156.779 15.7302 157.579 15.3302 158.359 15.0202C159.829 14.4402 161.239 16.0002 160.589 17.4402L158.549 21.9502C156.229 21.7702 153.979 22.1302 151.809 23.0202C149.639 23.9102 147.629 25.2802 145.789 27.1202L144.719 28.1902H146.329C148.229 28.1902 149.799 28.5202 151.019 29.1702C152.239 29.8302 153.329 30.9902 154.279 32.6502L160.709 43.6302C161.839 45.5902 162.849 47.0802 163.739 48.0902C163.849 48.2102 163.959 48.3302 164.069 48.4502C164.919 49.3702 164.269 50.8502 163.019 50.8502H151.069C151.069 49.6602 150.709 48.3102 149.999 46.7902C149.289 45.2702 148.039 43.0302 146.249 40.0502L145.179 38.3502L141.249 31.6602L140.629 32.2802V45.1302C140.629 46.2602 140.659 47.2902 140.719 48.2102C140.779 49.1302 140.899 50.0102 141.079 50.8402H129.479C129.659 50.0102 129.779 49.1302 129.839 48.2102L129.799 48.2402Z" fill="#F3F2EE"/>
<path d="M170.36 50.2902C169.68 49.6102 169.33 48.7602 169.33 47.7502C169.33 46.7402 169.67 45.8902 170.36 45.2102C171.05 44.5302 171.86 44.1802 172.81 44.1802C173.76 44.1802 174.58 44.5202 175.26 45.2102C175.94 45.8902 176.29 46.7402 176.29 47.7502C176.29 48.7602 175.95 49.6102 175.26 50.2902C174.58 50.9702 173.76 51.3202 172.81 51.3202C171.86 51.3202 171.04 50.9802 170.36 50.2902Z" fill="#EAF58D"/>
</svg>
