<svg width="46" height="46" viewBox="0 0 46 46" fill="none" xmlns="http://www.w3.org/2000/svg">
<circle cx="22.6395" cy="22.6395" r="22.2558" stroke="#2F4F3A" stroke-width="0.767442"/>
<path d="M29.6598 23.3283L24.4796 28.5086C24.3977 28.5848 24.2895 28.6263 24.1777 28.6244C24.0658 28.6224 23.9591 28.5771 23.88 28.498C23.8009 28.4189 23.7556 28.3122 23.7536 28.2003C23.7517 28.0885 23.7932 27.9803 23.8694 27.8984L28.3122 23.455H16.6919C16.5774 23.455 16.4676 23.4095 16.3867 23.3285C16.3057 23.2476 16.2603 23.1378 16.2603 23.0233C16.2603 22.9088 16.3057 22.799 16.3867 22.718C16.4676 22.6371 16.5774 22.5916 16.6919 22.5916H28.3122L23.8694 18.1481C23.7932 18.0663 23.7517 17.958 23.7536 17.8462C23.7556 17.7344 23.8009 17.6276 23.88 17.5486C23.9591 17.4695 24.0658 17.4242 24.1777 17.4222C24.2895 17.4202 24.3977 17.4617 24.4796 17.538L29.6598 22.7182C29.7406 22.7992 29.786 22.9089 29.786 23.0233C29.786 23.1377 29.7406 23.2474 29.6598 23.3283Z" fill="black"/>
</svg>
