<svg width="46" height="46" viewBox="0 0 46 46" fill="none" xmlns="http://www.w3.org/2000/svg">
<circle cx="22.6395" cy="22.6395" r="22.2558" stroke="#2F4F3A" stroke-opacity="0.4" stroke-width="0.767442"/>
<path d="M29.7863 23.0233C29.7863 23.1378 29.7408 23.2476 29.6598 23.3285C29.5789 23.4095 29.4691 23.455 29.3546 23.455H17.7343L22.1771 27.8984C22.2195 27.938 22.2535 27.9856 22.2771 28.0386C22.3007 28.0915 22.3134 28.1487 22.3144 28.2067C22.3154 28.2646 22.3048 28.3222 22.2831 28.3759C22.2614 28.4297 22.229 28.4785 22.1881 28.5195C22.1471 28.5605 22.0982 28.5928 22.0445 28.6145C21.9907 28.6362 21.9332 28.6469 21.8752 28.6459C21.8172 28.6449 21.7601 28.6322 21.7071 28.6086C21.6542 28.585 21.6065 28.551 21.567 28.5086L16.3867 23.3283C16.3059 23.2474 16.2605 23.1377 16.2605 23.0233C16.2605 22.9089 16.3059 22.7992 16.3867 22.7182L21.567 17.538C21.6488 17.4617 21.757 17.4202 21.8689 17.4222C21.9807 17.4242 22.0874 17.4695 22.1665 17.5486C22.2456 17.6276 22.2909 17.7344 22.2929 17.8462C22.2949 17.958 22.2533 18.0663 22.1771 18.1481L17.7343 22.5916H29.3546C29.4691 22.5916 29.5789 22.6371 29.6598 22.718C29.7408 22.799 29.7863 22.9088 29.7863 23.0233Z" fill="#2F4F3A" fill-opacity="0.4"/>
</svg>
